<svg aria-hidden="true" style="position: absolute; width: 0; height: 0; overflow: hidden;" version="1.1" xmlns="http://www.w3.org/2000/svg" xmlns:xlink="http://www.w3.org/1999/xlink">
<defs>
<symbol id="icon-burger" viewBox="0 0 32 32">
<path style="fill: var(--color1, #eaeaea)" d="M32 5.333h-32v2.667h32v-2.667z"></path>
<path style="fill: var(--color1, #eaeaea)" d="M32 12h-32v2.667h32v-2.667z"></path>
<path style="fill: var(--color1, #eaeaea)" d="M32 25.333h-32v2.667h32v-2.667z"></path>
<path style="fill: var(--color1, #eaeaea)" d="M32 18.667h-32v2.667h32v-2.667z"></path>
</symbol>
<symbol id="icon-close" viewBox="0 0 32 32">
<path style="fill: var(--color2, #fff)" d="M18.828 16l12.586-12.585c0.781-0.781 0.781-2.048 0-2.829s-2.048-0.781-2.829 0l-12.585 12.586-12.585-12.586c-0.781-0.781-2.048-0.781-2.829 0s-0.781 2.048 0 2.829l12.586 12.585-12.586 12.585c-0.781 0.781-0.781 2.048 0 2.829s2.048 0.781 2.829 0l12.585-12.586 12.585 12.586c0.781 0.781 2.048 0.781 2.829 0s0.781-2.048 0-2.829l-12.586-12.585z"></path>
</symbol>
<symbol id="icon-back" viewBox="0 0 32 32">
<path style="fill: var(--color3, #fffdf9)" d="M4.715 21.716l12.133 8.903c1.056 0.775 2.307 1.243 3.613 1.35s2.616-0.149 3.785-0.741c1.169-0.592 2.151-1.497 2.837-2.613s1.049-2.401 1.049-3.712v-17.805c0.003-1.311-0.359-2.597-1.044-3.715s-1.667-2.023-2.836-2.616c-1.169-0.593-2.48-0.849-3.787-0.74s-2.557 0.577-3.613 1.355l-12.14 8.903c-0.898 0.658-1.628 1.519-2.132 2.512s-0.766 2.091-0.766 3.204c0 1.113 0.262 2.211 0.766 3.204s1.234 1.853 2.132 2.512h0.003zM7.081 13.51l12.133-8.903c0.46-0.338 1.005-0.542 1.575-0.589s1.141 0.065 1.65 0.323c0.51 0.258 0.938 0.652 1.237 1.139s0.457 1.047 0.457 1.618v17.805c0.006 0.572-0.15 1.134-0.449 1.622s-0.731 0.88-1.244 1.133c-0.435 0.223-0.916 0.34-1.404 0.343-0.655-0.003-1.291-0.216-1.816-0.607l-12.133-8.903c-0.391-0.287-0.71-0.662-0.929-1.095s-0.334-0.911-0.334-1.396c0-0.485 0.114-0.963 0.334-1.396s0.538-0.808 0.929-1.094h-0.005z"></path>
</symbol>
<symbol id="icon-sun" viewBox="0 0 32 32">
<path fill="#fded4f" style="fill: var(--color4, #fded4f)" d="M30 16.015c-0.005 0.235-0.18 0.435-0.41 0.475-0.3 0.055-2.96 0.61-4.135 3.215-1.29 2.86 0.51 5.505 0.53 5.53 0.13 0.19 0.115 0.455-0.045 0.625-0.165 0.175-0.42 0.21-0.625 0.090-0.415-0.245-2.605-1.43-5.14-0.48-1.865 0.695-2.835 2.135-3.31 3.13-0.245 0.52-0.355 0.92-0.38 1.025-0.055 0.22-0.255 0.375-0.485 0.375s-0.43-0.155-0.485-0.38c-0.080-0.315-0.845-3.11-3.685-4.15-2.525-0.925-4.69 0.27-5.1 0.52-0.2 0.125-0.455 0.090-0.62-0.080-0.079-0.083-0.127-0.19-0.136-0.304s0.021-0.227 0.086-0.321c0.070-0.11 1.795-2.715 0.485-5.575-1.185-2.59-3.84-3.16-4.14-3.22-0.112-0.021-0.213-0.079-0.286-0.166s-0.116-0.196-0.119-0.309c-0.005-0.24 0.155-0.445 0.38-0.5 0.13-0.030 3.1-0.785 4.15-3.685 0.91-2.51-0.295-4.66-0.545-5.070-0.060-0.094-0.086-0.206-0.074-0.316s0.061-0.214 0.139-0.294c0.16-0.165 0.415-0.2 0.615-0.080 0.415 0.245 2.615 1.42 5.16 0.46 2.83-1.065 3.61-3.84 3.69-4.155 0.055-0.22 0.255-0.375 0.485-0.375 0.22 0 0.415 0.145 0.475 0.35 0.005 0.010 0.010 0.015 0.010 0.025 0.080 0.315 0.86 3.090 3.69 4.155 2.545 0.96 4.745-0.215 5.16-0.46 0.097-0.058 0.21-0.081 0.321-0.067s0.215 0.066 0.294 0.147c0.16 0.165 0.19 0.415 0.065 0.61-0.25 0.41-1.455 2.56-0.545 5.070 1.050 2.9 4.020 3.655 4.15 3.685 0.111 0.027 0.209 0.092 0.278 0.183s0.105 0.203 0.102 0.317z"></path>
<path fill="#ebc10d" style="fill: var(--color5, #ebc10d)" d="M24 16c0 4.41-3.59 8-8 8-0.625 0-1.23-0.070-1.81-0.21-3.54-0.82-6.19-4.005-6.19-7.79 0-3.935 2.855-7.215 6.605-7.875 0.45-0.085 0.92-0.125 1.395-0.125 4.41 0 8 3.59 8 8z"></path>
</symbol>
</defs>
</svg>
