<svg aria-hidden="true" style="position: absolute; width: 0; height: 0; overflow: hidden;" version="1.1" xmlns="http://www.w3.org/2000/svg" xmlns:xlink="http://www.w3.org/1999/xlink">
<defs>
<symbol id="icon-burger" viewBox="0 0 32 32">
<path style="fill: var(--color1, #eaeaea)" d="M32 5.333h-32v2.667h32v-2.667z"></path>
<path style="fill: var(--color1, #eaeaea)" d="M32 12h-32v2.667h32v-2.667z"></path>
<path style="fill: var(--color1, #eaeaea)" d="M32 25.333h-32v2.667h32v-2.667z"></path>
<path style="fill: var(--color1, #eaeaea)" d="M32 18.667h-32v2.667h32v-2.667z"></path>
</symbol>
<symbol id="icon-close" viewBox="0 0 32 32">
<path style="fill: var(--color2, #fff)" d="M18.828 16l12.586-12.585c0.781-0.781 0.781-2.048 0-2.829s-2.048-0.781-2.829 0l-12.585 12.586-12.585-12.586c-0.781-0.781-2.048-0.781-2.829 0s-0.781 2.048 0 2.829l12.586 12.585-12.586 12.585c-0.781 0.781-0.781 2.048 0 2.829s2.048 0.781 2.829 0l12.585-12.586 12.585 12.586c0.781 0.781 2.048 0.781 2.829 0s0.781-2.048 0-2.829l-12.586-12.585z"></path>
</symbol>
<symbol id="icon-back" viewBox="0 0 32 32">
<path style="fill: var(--color3, #fffdf9)" d="M4.715 21.716l12.133 8.903c1.056 0.775 2.307 1.243 3.613 1.35s2.616-0.149 3.785-0.741c1.169-0.592 2.151-1.497 2.837-2.613s1.049-2.401 1.049-3.712v-17.805c0.003-1.311-0.359-2.597-1.044-3.715s-1.667-2.023-2.836-2.616c-1.169-0.593-2.48-0.849-3.787-0.74s-2.557 0.577-3.613 1.355l-12.14 8.903c-0.898 0.658-1.628 1.519-2.132 2.512s-0.766 2.091-0.766 3.204c0 1.113 0.262 2.211 0.766 3.204s1.234 1.853 2.132 2.512h0.003zM7.081 13.51l12.133-8.903c0.46-0.338 1.005-0.542 1.575-0.589s1.141 0.065 1.65 0.323c0.51 0.258 0.938 0.652 1.237 1.139s0.457 1.047 0.457 1.618v17.805c0.006 0.572-0.15 1.134-0.449 1.622s-0.731 0.88-1.244 1.133c-0.435 0.223-0.916 0.34-1.404 0.343-0.655-0.003-1.291-0.216-1.816-0.607l-12.133-8.903c-0.391-0.287-0.71-0.662-0.929-1.095s-0.334-0.911-0.334-1.396c0-0.485 0.114-0.963 0.334-1.396s0.538-0.808 0.929-1.094h-0.005z"></path>
</symbol>
<symbol id="icon-sun" viewBox="0 0 32 32">
<path fill="#fded4f" style="fill: var(--color4, #fded4f)" d="M30 16.015c-0.005 0.235-0.18 0.435-0.41 0.475-0.3 0.055-2.96 0.61-4.135 3.215-1.29 2.86 0.51 5.505 0.53 5.53 0.13 0.19 0.115 0.455-0.045 0.625-0.165 0.175-0.42 0.21-0.625 0.090-0.415-0.245-2.605-1.43-5.14-0.48-1.865 0.695-2.835 2.135-3.31 3.13-0.245 0.52-0.355 0.92-0.38 1.025-0.055 0.22-0.255 0.375-0.485 0.375s-0.43-0.155-0.485-0.38c-0.080-0.315-0.845-3.11-3.685-4.15-2.525-0.925-4.69 0.27-5.1 0.52-0.2 0.125-0.455 0.090-0.62-0.080-0.079-0.083-0.127-0.19-0.136-0.304s0.021-0.227 0.086-0.321c0.070-0.11 1.795-2.715 0.485-5.575-1.185-2.59-3.84-3.16-4.14-3.22-0.112-0.021-0.213-0.079-0.286-0.166s-0.116-0.196-0.119-0.309c-0.005-0.24 0.155-0.445 0.38-0.5 0.13-0.030 3.1-0.785 4.15-3.685 0.91-2.51-0.295-4.66-0.545-5.070-0.060-0.094-0.086-0.206-0.074-0.316s0.061-0.214 0.139-0.294c0.16-0.165 0.415-0.2 0.615-0.080 0.415 0.245 2.615 1.42 5.16 0.46 2.83-1.065 3.61-3.84 3.69-4.155 0.055-0.22 0.255-0.375 0.485-0.375 0.22 0 0.415 0.145 0.475 0.35 0.005 0.010 0.010 0.015 0.010 0.025 0.080 0.315 0.86 3.090 3.69 4.155 2.545 0.96 4.745-0.215 5.16-0.46 0.097-0.058 0.21-0.081 0.321-0.067s0.215 0.066 0.294 0.147c0.16 0.165 0.19 0.415 0.065 0.61-0.25 0.41-1.455 2.56-0.545 5.070 1.050 2.9 4.020 3.655 4.15 3.685 0.111 0.027 0.209 0.092 0.278 0.183s0.105 0.203 0.102 0.317z"></path>
<path fill="#ebc10d" style="fill: var(--color5, #ebc10d)" d="M24 16c0 4.41-3.59 8-8 8-0.625 0-1.23-0.070-1.81-0.21-3.54-0.82-6.19-4.005-6.19-7.79 0-3.935 2.855-7.215 6.605-7.875 0.45-0.085 0.92-0.125 1.395-0.125 4.41 0 8 3.59 8 8z"></path>
</symbol>
<symbol id="icon-google" viewBox="0 0 96 32">
<path d="M7.121 4.526c0 0.903-0.226 1.694-0.791 2.258-0.678 0.677-1.469 1.016-2.487 1.016s-1.809-0.339-2.487-1.016c-0.678-0.677-1.017-1.468-1.017-2.484s0.339-1.806 1.017-2.484c0.678-0.677 1.469-1.016 2.487-1.016 0.452 0 0.904 0.113 1.356 0.339s0.791 0.452 1.017 0.79l-0.565 0.565c-0.452-0.565-1.017-0.79-1.808-0.79-0.678 0-1.356 0.226-1.809 0.79-0.565 0.452-0.791 1.129-0.791 1.919s0.226 1.468 0.791 1.919 1.13 0.79 1.809 0.79c0.791 0 1.356-0.226 1.922-0.79 0.339-0.339 0.565-0.79 0.565-1.355h-2.487v-0.79h3.278c0 0 0 0.113 0 0.339z"></path>
<path d="M12.321 1.703h-3.052v2.145h2.826v0.79h-2.826v2.145h3.052v0.79h-3.956v-6.774h3.956v0.903z"></path>
<path d="M16.052 7.574h-0.905v-5.984h-1.922v-0.79h4.747v0.79h-1.921v5.984z"></path>
<path d="M21.251 7.574v-6.774h0.904v6.774h-0.904z"></path>
<path d="M25.998 7.574h-0.904v-5.984h-1.922v-0.79h4.634v0.79h-1.922v5.984h0.113z"></path>
<path d="M36.737 6.784c-0.678 0.677-1.47 1.016-2.487 1.016s-1.808-0.339-2.487-1.016c-0.678-0.677-1.017-1.468-1.017-2.484s0.339-1.806 1.017-2.484c0.679-0.677 1.47-1.016 2.487-1.016s1.809 0.339 2.487 1.016c0.678 0.677 1.017 1.468 1.017 2.484 0 0.903-0.339 1.806-1.017 2.484zM32.442 6.219c0.452 0.452 1.13 0.79 1.808 0.79s1.357-0.226 1.809-0.79c0.452-0.452 0.791-1.129 0.791-1.919s-0.226-1.468-0.791-1.919c-0.452-0.452-1.13-0.79-1.809-0.79s-1.356 0.226-1.808 0.79c-0.452 0.452-0.792 1.129-0.792 1.919 0 0.677 0.226 1.355 0.792 1.919z"></path>
<path d="M38.998 7.574v-6.774h1.017l3.278 5.306v-5.306h0.904v6.774h-0.904l-3.504-5.532v5.532h-0.791z"></path>
<path d="M30.519 17.509c-2.713 0-4.86 2.032-4.86 4.855 0 2.71 2.148 4.855 4.86 4.855s4.861-2.032 4.861-4.855c0-2.823-2.148-4.855-4.861-4.855zM30.519 25.187c-1.47 0-2.713-1.242-2.713-2.935s1.243-2.935 2.713-2.935 2.713 1.129 2.713 2.935c0 1.806-1.243 2.935-2.713 2.935zM20.007 17.509c-2.713 0-4.86 2.032-4.86 4.855 0 2.71 2.148 4.855 4.86 4.855s4.861-2.032 4.861-4.855c0-2.823-2.148-4.855-4.861-4.855zM20.007 25.187c-1.469 0-2.713-1.242-2.713-2.935s1.244-2.935 2.713-2.935c1.47 0 2.713 1.129 2.713 2.935s-1.244 2.935-2.713 2.935zM7.46 18.977v2.032h4.86c-0.113 1.129-0.565 2.032-1.13 2.597-0.678 0.677-1.809 1.468-3.73 1.468-3.052 0-5.313-2.371-5.313-5.419s2.374-5.419 5.313-5.419c1.582 0 2.826 0.677 3.73 1.468l1.469-1.468c-1.243-1.129-2.826-2.032-5.087-2.032-4.069 0-7.573 3.387-7.573 7.452s3.504 7.451 7.573 7.451c2.261 0 3.843-0.677 5.2-2.145 1.356-1.355 1.808-3.274 1.808-4.742 0-0.452 0-0.903-0.113-1.242h-7.008zM58.778 20.558c-0.452-1.129-1.583-3.048-4.069-3.048s-4.521 1.919-4.521 4.855c0 2.71 2.035 4.855 4.747 4.855 2.148 0 3.504-1.355 3.956-2.145l-1.582-1.129c-0.565 0.79-1.244 1.355-2.374 1.355s-1.809-0.452-2.374-1.468l6.443-2.71-0.226-0.565zM52.222 22.138c0-1.806 1.47-2.823 2.487-2.823 0.791 0 1.582 0.452 1.808 1.016l-4.295 1.806zM46.909 26.767h2.148v-14.113h-2.148v14.113zM43.518 18.526c-0.566-0.565-1.47-1.129-2.6-1.129-2.373 0-4.634 2.145-4.634 4.855s2.148 4.742 4.634 4.742c1.131 0 2.035-0.565 2.487-1.129h0.114v0.677c0 1.806-1.017 2.822-2.6 2.822-1.243 0-2.147-0.903-2.373-1.694l-1.809 0.79c0.565 1.242 1.922 2.822 4.296 2.822 2.487 0 4.521-1.468 4.521-4.968v-8.58h-2.035v0.79zM41.032 25.187c-1.47 0-2.713-1.242-2.713-2.935s1.244-2.935 2.713-2.935 2.6 1.242 2.6 2.935c0 1.694-1.13 2.935-2.6 2.935zM68.612 12.655h-5.087v14.113h2.148v-5.306h2.939c2.373 0 4.634-1.694 4.634-4.403s-2.261-4.403-4.634-4.403zM68.725 19.542h-3.052v-4.855h3.052c1.582 0 2.487 1.355 2.487 2.371-0.113 1.129-1.017 2.484-2.487 2.484zM81.724 17.509c-1.583 0-3.166 0.677-3.731 2.145l1.922 0.79c0.452-0.79 1.13-1.016 1.922-1.016 1.13 0 2.147 0.677 2.26 1.806v0.113c-0.338-0.226-1.243-0.565-2.147-0.565-2.035 0-4.069 1.129-4.069 3.161 0 1.919 1.695 3.161 3.504 3.161 1.469 0 2.147-0.677 2.712-1.355h0.113v1.129h2.035v-5.419c-0.226-2.597-2.148-3.952-4.521-3.952zM81.498 25.187c-0.678 0-1.696-0.339-1.696-1.242 0-1.129 1.243-1.468 2.26-1.468 0.905 0 1.357 0.226 1.922 0.452-0.226 1.355-1.357 2.258-2.486 2.258zM93.366 17.735l-2.374 6.097h-0.113l-2.486-6.097h-2.261l3.73 8.58-2.148 4.742h2.148l5.764-13.322h-2.261zM74.376 26.767h2.148v-14.113h-2.148v14.113z"></path>
</symbol>
</defs>
</svg>
